#!OML:ASF I:\Actors\actors\Patient Classification 2\Patient 1\Session 1\actor1.ASF
:FULLY-SPECIFIED
:DEGREES
85
root -0.662198 18.6858 5.7722 1.60978 -3.3308 -1.39143
lowerback 0.196394 0.615974 -0.699334
upperback -2.91432 0.812519 0.160186
thorax -3.11326 0.425686 0.532547
lowerneck -10.1066 -2.30832 -3.7796
upperneck 32.3082 -4.08954 4.7899
head 12.5416 -1.69817 1.93976
rclavicle -9.52924e-015 5.96354e-016
rhumerus -50.4276 -6.11975 -82.27
rradius 42.2514
rwrist 19.6644
rhand -10.8852 -24.2242
rfingers 7.12502
rthumb 15.1311 -53.651
lclavicle -9.52924e-015 5.96354e-016
lhumerus -46.3314 7.76398 84.3542
lradius 40.2482
lwrist -6.64712
lhand -10.4056 -30.5732
lfingers 7.12502
lthumb 15.593 -1.18177
rfemur 0 0 0
rtibia 0
rfoot 0 0
rtoes 0
lfemur -3.70668 -9.59376 -13.6141
ltibia 20.5005
lfoot -24.9448 16.9458
ltoes -54.579
86
root -0.661232 18.6868 5.76933 1.63317 -3.28545 -1.41278
lowerback 0.212888 0.604147 -0.671751
upperback -2.89358 0.7979 0.1861
thorax -3.10089 0.417952 0.544094
lowerneck -10.1786 -2.32887 -3.74771
upperneck 31.9881 -4.10405 4.77466
head 12.4239 -1.70303 1.92037
rclavicle -6.75868e-015 9.54166e-015
rhumerus -50.3287 -6.03787 -82.2707
rradius 42.1234
rwrist 19.6507
rhand -11.1625 -24.6328
rfingers 7.12502
rthumb 14.8639 -54.0796
lclavicle -6.75868e-015 9.54166e-015
lhumerus -46.3945 7.70095 84.4473
lradius 40.2695
lwrist -6.69078
lhand -10.2359 -30.5995
lfingers 7.12502
lthumb 15.7565 -1.22084
rfemur 0 0 0
rtibia 0
rfoot 0 0
rtoes 0
lfemur -3.75362 -9.58843 -13.5783
ltibia 20.5082
lfoot -24.9273 16.8909
ltoes -54.5763
87
root -0.661411 18.6875 5.76791 1.67051 -3.23808 -1.43707
lowerback 0.208136 0.577714 -0.67228
upperback -2.88546 0.763919 0.23373
thorax -3.09 0.401638 0.594412
lowerneck -10.2163 -2.32793 -3.74213
upperneck 31.6253 -4.07442 4.74291
head 12.28 -1.69429 1.9051
rclavicle 2.90723e-015 -1.39149e-015
rhumerus -50.1912 -5.85833 -82.3158
rradius 41.9482
rwrist 19.6602
rhand -11.2189 -24.783
rfingers 7.12502
rthumb 14.8096 -54.2338
lclavicle 2.90723e-015 -1.39149e-015
lhumerus -46.4387 7.62785 84.5686
lradius 40.2557
lwrist -6.75649
lhand -9.96337 -30.4451
lfingers 7.12502
lthumb 16.0189 -1.0874
rfemur 0 0 0
rtibia 0
rfoot 0 0
rtoes 0
lfemur -3.81133 -9.65371 -13.5407
ltibia 20.5358
lfoot -25.0105 16.8508
ltoes -54.4721
88
root -0.661349 18.6885 5.76737 1.73476 -3.17779 -1.46184
lowerback 0.166243 0.555479 -0.671836
upperback -2.88164 0.735773 0.281646
thorax -3.06263 0.388173 0.644656
lowerneck -10.2084 -2.34235 -3.81456
upperneck 31.2224 -4.0954 4.85869
head 12.1197 -1.70006 1.95276
rclavicle -1.38777e-014 4.17448e-015
rhumerus -50.0679 -5.70636 -82.3569
rradius 41.8226
rwrist 19.7729
rhand -11.1923 -24.7662
rfingers 7.12502
rthumb 14.8353 -54.2151
lclavicle -1.38777e-014 4.17448e-015
lhumerus -46.4765 7.55221 84.6856
lradius 40.2422
lwrist -6.8885
lhand -9.67101 -30.3404
lfingers 7.12502
lthumb 16.3004 -1.00548
rfemur 0 0 0
rtibia 0
rfoot 0 0
rtoes 0
lfemur -3.911 -9.66882 -13.4952
ltibia 20.5698
lfoot -25.0174 16.7975
ltoes -54.4553
89
root -0.661229 18.6896 5.7671 1.79902 -3.12601 -1.50606
lowerback 0.120685 0.549713 -0.623331
upperback -2.88591 0.72987 0.30657
thorax -3.04093 0.384288 0.643694
lowerneck -10.2011 -2.37768 -3.86435
upperneck 30.8716 -4.16515 5.00896
head 11.9852 -1.72071 2.00351
rclavicle 2.14936e-015 -5.36719e-015
rhumerus -49.9692 -5.71121 -82.3555
rradius 41.6777
rwrist 19.9394
rhand -11.2101 -24.7386
rfingers 7.12502
rthumb 14.8181 -54.1888
lclavicle 2.14936e-015 -5.36719e-015
lhumerus -46.472 7.54843 84.696
lradius 40.0387
lwrist -7.17328
lhand -9.45437 -30.4109
lfingers 7.12502
lthumb 16.509 -1.09324
rfemur 0 0 0
rtibia 0
rfoot 0 0
rtoes 0
lfemur -4.00434 -9.67442 -13.4291
ltibia 20.5879
lfoot -25.0021 16.7812
ltoes -54.4778
90
root -0.661542 18.6905 5.76782 1.84171 -3.08244 -1.51528
lowerback 0.106668 0.546457 -0.604886
upperback -2.91055 0.726216 0.317954
thorax -3.05832 0.382289 0.645157
lowerneck -10.1909 -2.39913 -3.85962
upperneck 30.5986 -4.19248 5.03745
head 11.8758 -1.73066 2.00548
rclavicle 7.95139e-016 1.19271e-015
rhumerus -49.939 -5.81362 -82.3122
rradius 41.5456
rwrist 20.1238
rhand -11.2381 -24.5197
rfingers 7.12502
rthumb 14.7911 -53.9719
lclavicle 7.95139e-016 1.19271e-015
lhumerus -46.4934 7.48798 84.7589
lradius 40.0106
lwrist -7.55877
lhand -9.30581 -29.6316
lfingers 7.12502
lthumb 16.652 -0.32587
rfemur 0 0 0
rtibia 0
rfoot 0 0
rtoes 0
lfemur -4.05681 -9.74049 -13.4119
ltibia 20.5883
lfoot -25.0092 16.8125
ltoes -54.4798
